<svg xmlns="http://www.w3.org/2000/svg" viewBox="0 0 48 48" width="48" height="48" role="img" aria-label="FTP Server">
  <rect width="48" height="48" rx="10" fill="#0f172a"/>
  <path d="M10 15a2 2 0 0 1 2-2h8l3 4h13a2 2 0 0 1 2 2v14a2 2 0 0 1-2 2H12a2 2 0 0 1-2-2z" fill="none" stroke="#a3e635" stroke-width="2" stroke-linejoin="round"/><path d="M19 31v-6m0 0-2.5 2.5M19 25l2.5 2.5" fill="none" stroke="#a3e635" stroke-width="2" stroke-linecap="round" stroke-linejoin="round"/><path d="M29 25v6m0 0-2.5-2.5M29 31l2.5-2.5" fill="none" stroke="#a3e635" stroke-width="2" stroke-linecap="round" stroke-linejoin="round"/>
</svg>
